<svg id="Capa_1" enable-background="new 0 0 512 512" height="512" viewBox="0 0 512 512" width="512" xmlns="http://www.w3.org/2000/svg"><g><g><path d="m437.677 409.641c-1.189-24.194-20.534-43.999-44.697-45.71-15.513-1.098-29.603 5.142-39.156 15.597-9.24 8.463-21.544 13.636-35.062 13.636-28.683 0-51.935-23.252-51.935-51.935v-.354h-19.842v.354c0 28.683-23.252 51.935-51.935 51.935-7.683 0-14.972-1.672-21.53-4.669-6.989-3.194-12.574-8.701-16.469-15.325-5.221-8.878-14.872-14.837-25.916-14.837-15.553 0-28.342 11.818-29.886 26.964-.001.006-.001.012-.002.018-.103 1.005-1.157 1.623-2.088 1.23-.18-.076-.329-.142-.42-.189-4.631-2.391-9.959-3.618-15.603-3.278-14.995.903-27.193 13.058-28.135 28.051-1.098 17.474 12.749 31.988 29.986 31.988 5.685 0 10.999-1.584 15.531-4.328.753-.456 1.687.175 1.514 1.038-.657 3.275-.984 6.67-.94 10.149.331 26.504 21.766 47.66 48.272 47.657 18.833-.002 35.14-10.792 43.094-26.524.616-1.218 2.234-1.505 3.198-.538 5.44 5.459 12.966 8.839 21.283 8.839 9.438 0 17.858-4.352 23.366-11.157.822-1.015 2.337-1.012 3.159.003 5.267 6.506 13.196 10.769 22.131 11.129.058.002.142.004.244.005 1.138.014 2.192.619 2.776 1.597l.006.01c8.428 14.095 23.839 23.534 41.456 23.534 19.064 0 35.537-11.056 43.381-27.102.482-.986 1.672-1.375 2.664-.905 3.896 1.848 8.251 2.885 12.849 2.885 12.553 0 23.307-7.698 27.801-18.631.266-.646.83-1.112 1.517-1.239 23.211-4.291 40.603-25.178 39.388-49.898z" fill="#407093"/></g><g><g><path d="m437.677 409.641c-1.181-24.026-20.269-43.715-44.197-45.663 9.044 8.339 14.923 20.06 15.561 33.052 1.215 24.72-16.177 45.607-39.389 49.894-.687.127-1.251.593-1.517 1.239-4.494 10.933-15.248 18.631-27.801 18.631-4.599 0-8.954-1.038-12.849-2.886-.992-.47-2.182-.081-2.664.905-7.844 16.046-24.318 27.102-43.381 27.102-1.371 0-2.723-.077-4.066-.189 8.601 7.935 20.076 12.8 32.701 12.8 19.064 0 35.537-11.056 43.381-27.102.482-.986 1.672-1.375 2.664-.905 3.896 1.848 8.251 2.886 12.849 2.886 12.553 0 23.307-7.698 27.801-18.631.266-.646.83-1.112 1.517-1.239 23.213-4.287 40.605-25.174 39.39-49.894z" fill="#365e7d"/></g></g><g><g><path d="m405.073 288.577-15.751-51.488c-4.337-14.178-14.263-25.978-27.488-32.679l-22.408-11.353c-8.506-4.31-15.688-10.841-20.785-18.901l-18.566-29.362h-86.561l-18.566 29.362c-5.096 8.06-12.278 14.591-20.785 18.901l-22.408 11.353c-13.226 6.701-23.151 18.5-27.488 32.679l-15.751 51.488c-1.16 3.792 1.676 7.625 5.642 7.625h285.273c3.966 0 6.802-3.834 5.642-7.625z" fill="#dd636e"/></g><g><path d="m405.073 288.577-15.751-51.488c-4.337-14.178-14.263-25.978-27.488-32.679l-22.408-11.354c-8.506-4.31-15.688-10.841-20.785-18.901l-18.566-29.362h-32.674l18.566 29.362c5.096 8.06 12.278 14.591 20.785 18.901l22.408 11.354c13.226 6.701 23.151 18.5 27.488 32.679l15.751 51.488c1.16 3.792-1.676 7.625-5.642 7.625h32.674c3.966 0 6.802-3.834 5.642-7.625z" fill="#da4a54"/></g><g><path d="m303.688 237.833v-129.134c0-13.726-2.824-27.305-8.297-39.892l-21.911-50.394c-6.342-14.586-27.028-14.586-33.37 0l-21.911 50.394c-5.473 12.587-8.297 26.166-8.297 39.892v129.134c0 3.641-1.966 6.999-5.141 8.781l-13.454 7.552c-7.719 4.333-12.498 12.496-12.498 21.348v44.378c0 2.036 1.651 3.687 3.687 3.687h148.597c2.036 0 3.687-1.651 3.687-3.687v-44.378c0-8.852-4.779-17.015-12.498-21.348l-13.454-7.552c-3.175-1.782-5.14-5.14-5.14-8.781z" fill="#f1f4f6"/></g><g><path d="m322.283 254.167-13.454-7.552c-3.175-1.782-5.141-5.14-5.141-8.781v-129.135c0-13.726-2.824-27.305-8.297-39.892l-21.911-50.393c-5.003-11.508-18.931-13.928-27.703-7.278 2.347 1.779 4.329 4.2 5.667 7.278l21.911 50.394c5.473 12.588 8.297 26.166 8.297 39.892v129.134c0 3.641 1.966 6.999 5.141 8.781l13.454 7.552c7.719 4.333 12.498 12.496 12.498 21.348v44.378c0 2.036-1.651 3.687-3.687 3.687h22.036c2.036 0 3.687-1.651 3.687-3.687v-44.378c0-8.852-4.779-17.015-12.498-21.348z" fill="#dfeaef"/></g><g><circle cx="256.795" cy="116.912" fill="#407093" r="17.224"/></g><g><path d="m261.245 100.29c.38 1.422.602 2.909.602 4.45 0 9.512-7.711 17.224-17.224 17.224-1.542 0-3.028-.222-4.45-.602 1.964 7.351 8.651 12.773 16.622 12.773 9.512 0 17.224-7.711 17.224-17.224-.001-7.969-5.423-14.656-12.774-16.621z" fill="#365e7d"/></g></g><g><g><path d="m256.795 347.308c-8.34 0-15.101-6.761-15.101-15.101v-86.675c0-2.036 1.651-3.687 3.687-3.687h22.827c2.036 0 3.687 1.651 3.687 3.687v86.675c.001 8.34-6.76 15.101-15.1 15.101z" fill="#dfeaef"/></g><g><path d="m268.208 241.845h-11.272v75.403c0 8.34-6.761 15.101-15.101 15.101-.046 0-.089-.006-.135-.007.073 8.277 6.8 14.966 15.094 14.966 8.34 0 15.101-6.761 15.101-15.101v-86.675c.001-2.036-1.65-3.687-3.687-3.687z" fill="#afaab4"/></g></g><g><path d="m256.795 92.216c-13.618 0-24.697 11.079-24.697 24.697s11.079 24.696 24.697 24.696 24.697-11.078 24.697-24.696-11.079-24.697-24.697-24.697zm0 34.447c-5.377 0-9.751-4.374-9.751-9.75 0-5.377 4.374-9.751 9.751-9.751s9.751 4.374 9.751 9.751c0 5.376-4.374 9.75-9.751 9.75z"/><path d="m393.508 356.476c-17.041-1.198-33.404 5.26-44.959 17.749-8.186 7.396-18.752 11.466-29.786 11.466-22.907 0-41.769-17.168-44.189-39.598 3-3.833 4.795-8.652 4.795-13.885v-1.154h51.724c6.154 0 11.16-5.006 11.16-11.161v-16.217h57.178c4.284 0 8.202-1.975 10.75-5.419 2.548-3.445 3.291-7.769 2.038-11.866l-15.751-51.487c-4.905-16.037-16.298-29.58-31.257-37.159l-22.408-11.354c-7.301-3.699-13.472-9.31-17.846-16.228l-13.797-21.981v-39.482c0-14.838-3-29.262-8.917-42.871l-.551-1.268c-1.645-3.786-6.049-5.523-9.833-3.874-3.785 1.645-5.52 6.048-3.874 9.833l.551 1.268c5.094 11.718 7.677 24.137 7.677 36.912v129.134c0 6.335 3.431 12.196 8.956 15.297l13.454 7.552c5.356 3.007 8.683 8.689 8.683 14.832v40.592h-47.939v-70.575c0-6.155-5.006-11.161-11.16-11.161h-22.827c-6.154 0-11.16 5.006-11.16 11.161v70.575h-47.939v-40.592c0-6.142 3.327-11.826 8.683-14.832l13.455-7.552c5.524-3.101 8.955-8.963 8.955-15.297v-129.135c0-12.776 2.583-25.194 7.677-36.912l21.91-50.395c1.755-4.036 5.431-6.446 9.832-6.446s8.077 2.41 9.832 6.446l7.666 17.632c1.645 3.785 6.047 5.521 9.833 3.874 3.785-1.645 5.52-6.048 3.874-9.833l-7.666-17.632c-4.138-9.519-13.157-15.433-23.537-15.433-10.381 0-19.4 5.914-23.539 15.434l-21.91 50.395c-5.917 13.608-8.917 28.032-8.917 42.871v39.643l-13.796 21.821c-4.374 6.917-10.546 12.529-17.846 16.228l-22.409 11.354c-14.332 7.261-25.154 19.609-30.473 34.769-1.366 3.894.683 8.159 4.578 9.525 3.791 1.36 8.166-.645 9.526-4.577 4.036-11.504 12.248-20.874 23.124-26.384l22.409-11.354c9.705-4.917 17.908-12.376 23.724-21.574l1.164-1.841v61.525c0 .938-.508 1.805-1.325 2.264l-13.454 7.552c-10.063 5.649-16.314 16.326-16.314 27.865v13.214h-55.051l5.283-17.272c1.208-3.947-1.013-8.125-4.96-9.333-3.945-1.207-8.125 1.013-9.332 4.96l-5.905 19.306c-1.253 4.097-.51 8.422 2.038 11.865 2.548 3.444 6.466 5.419 10.75 5.419h57.178v16.217c0 6.155 5.006 11.161 11.16 11.161h51.725v1.154c0 5.346 1.872 10.261 4.99 14.133-2.535 22.297-21.369 39.35-44.161 39.35-6.428 0-12.627-1.344-18.423-3.993-5.271-2.409-9.812-6.668-13.134-12.316-6.718-11.425-19.117-18.522-32.358-18.522-16.698 0-30.951 10.817-35.773 26.152-4.09-1.175-8.379-1.653-12.675-1.393-18.852 1.136-33.961 16.199-35.144 35.042-.658 10.484 2.925 20.459 10.091 28.089 7.066 7.524 17.036 11.839 27.354 11.839 2.92 0 5.815-.34 8.628-1.004 0 .161.002.322.004.483.185 14.797 6.06 28.645 16.543 38.993 10.48 10.347 24.4 16.044 39.197 16.044h.006c18.871-.002 36.087-9.348 46.359-24.785 6.196 4.266 13.526 6.56 21.214 6.56 9.313 0 18.128-3.401 24.949-9.49 5.956 5.297 13.477 8.589 21.503 9.332 10.24 15.649 27.925 25.28 46.686 25.28 19.758 0 37.595-10.161 47.665-26.833 3.613 1.138 7.373 1.712 11.23 1.712 14.294 0 27.14-7.991 33.493-20.592 8.376-2.005 16.228-5.959 22.856-11.531 3.16-2.655 3.568-7.37.912-10.528-2.655-3.161-7.37-3.568-10.529-.913-5.391 4.531-11.882 7.599-18.768 8.871-3.192.588-5.837 2.736-7.075 5.748-3.496 8.504-11.696 13.998-20.89 13.998-3.374 0-6.619-.728-9.649-2.165-4.676-2.217-10.317-.252-12.578 4.376-6.908 14.132-20.959 22.911-36.668 22.911-14.469 0-27.551-7.415-35.007-19.837-.013-.022-.025-.044-.038-.065-1.901-3.184-5.386-5.19-9.135-5.238-6.473-.262-12.532-3.31-16.622-8.361-1.818-2.247-4.511-3.536-7.39-3.537-.001 0-.001 0-.002 0-2.876 0-5.568 1.287-7.385 3.531-4.314 5.329-10.713 8.386-17.558 8.386-6.044 0-11.722-2.358-15.989-6.64-2.132-2.141-5.185-3.137-8.173-2.659-3.002.477-5.614 2.384-6.988 5.101-6.991 13.829-20.948 22.421-36.425 22.423-.002 0-.002 0-.005 0-22.591 0-40.512-17.692-40.794-40.278-.036-2.887.232-5.776.795-8.585.661-3.293-.686-6.665-3.431-8.592-2.755-1.933-6.397-2.053-9.282-.307-3.507 2.124-7.539 3.247-11.659 3.247-6.299 0-12.144-2.53-16.459-7.125-4.311-4.59-6.465-10.599-6.068-16.92.7-11.139 9.979-20.388 21.127-21.06 4.081-.243 8.133.604 11.783 2.488 5.391 3.131 12.867-.703 13.315-6.97 1.177-11.544 10.829-20.249 22.451-20.249 7.967 0 15.429 4.274 19.474 11.152 4.884 8.304 11.732 14.644 19.804 18.333 7.76 3.547 16.049 5.346 24.637 5.346 28.232 0 51.915-19.588 57.923-46.186 1.243.213 2.519.33 3.822.33 1.377 0 2.723-.131 4.033-.368 5.984 26.629 29.651 46.223 57.935 46.223 14.884 0 29.129-5.54 40.109-15.598.163-.149.32-.306.469-.469 8.469-9.268 20.541-14.065 33.112-13.184 20.516 1.453 36.749 18.056 37.76 38.623.141 2.859-.012 5.723-.453 8.51-.645 4.077 2.136 7.904 6.213 8.55 3.985.658 7.923-2.116 8.549-6.213.602-3.802.81-7.698.619-11.581-1.385-28.115-23.583-50.814-51.637-52.8zm-67.568-108.826-13.453-7.552c-.818-.459-1.326-1.326-1.326-2.264v-61.525l1.164 1.841c5.815 9.195 14.018 16.656 23.724 21.573l22.408 11.354c11.352 5.751 19.997 16.029 23.72 28.198l15.129 49.455h-55.051v-13.214c-.001-11.54-6.252-22.218-16.315-27.866zm-76.773 84.557v-82.89h15.256v82.89c0 4.206-3.422 7.628-7.628 7.628s-7.628-3.422-7.628-7.628z"/><path d="m454.422 341.767c-5.489 0-9.938 4.449-9.938 9.938s4.449 9.938 9.938 9.938 9.938-4.449 9.938-9.938-4.449-9.938-9.938-9.938z"/><path d="m495.633 384.838c-5.489 0-9.938 4.449-9.938 9.938s4.449 9.938 9.938 9.938 9.938-4.449 9.938-9.938c-.001-5.489-4.45-9.938-9.938-9.938z"/><ellipse cx="16.367" cy="432.396" rx="9.938" ry="9.938" transform="matrix(.383 -.924 .924 .383 -389.378 282.047)"/></g></g></svg>